# xmcd
#
# Track frame offsets: 
#        187
#        19652
#        43682
#        63120
#
# Disc length: 1161 seconds
#
# Revision: 1
# Processed by: cddbd v1.5.2PL0 Copyright (c) Steve Scherf et al.
# Submitted via: ExactAudioCopyFreeDBPlugin 1.0
#
DISCID=28048704
DTITLE=嘉門達夫 - 替え唄メドレー２
DYEAR=1991
DGENRE=JPop
TTITLE0=替え唄メドレー２
TTITLE1=血液型別ハンバーガーショップ
TTITLE2=替え唄メドレー２（オリジナル・カラオケ）
TTITLE3=血液型別ハンバーガーショップ（オリジナル・カラオケ）
EXTD=YEAR: 1991
EXTT0=
EXTT1=
EXTT2=
EXTT3=
PLAYORDER=
